<svg width="17" height="16" viewBox="0 0 17 16" fill="none" xmlns="http://www.w3.org/2000/svg">
<g clip-path="url(#clip0)">
<path d="M16.9011 4.70404C16.8636 3.8539 16.7262 3.26944 16.5294 2.76299C16.3263 2.22541 16.0139 1.74412 15.6046 1.34401C15.2047 0.937683 14.7205 0.621948 14.1894 0.421957C13.6802 0.22502 13.0991 0.0875415 12.2494 0.0500586C11.3933 0.00940124 11.1215 0 8.9503 0C6.77906 0 6.50729 0.00940124 5.65439 0.0468842C4.80466 0.0843671 4.22048 0.221967 3.7144 0.418783C3.17696 0.621948 2.6959 0.934509 2.29599 1.34401C1.88986 1.74412 1.5744 2.22858 1.37439 2.75994C1.17755 3.26944 1.04014 3.85073 1.00267 4.70087C0.962033 5.55736 0.952637 5.82926 0.952637 8.00156C0.952637 10.1739 0.962033 10.4458 0.999498 11.2991C1.03696 12.1492 1.1745 12.7337 1.37134 13.2401C1.5744 13.7777 1.88986 14.259 2.29599 14.6591C2.6959 15.0654 3.18014 15.3812 3.71123 15.5812C4.22048 15.7781 4.80149 15.9156 5.65134 15.9531C6.50412 15.9907 6.77601 16 8.94725 16C11.1185 16 11.3903 15.9907 12.2432 15.9531C13.0929 15.9156 13.6771 15.7781 14.1831 15.5812C15.2579 15.1654 16.1076 14.3153 16.5232 13.2401C16.7199 12.7306 16.8574 12.1492 16.8949 11.2991C16.9323 10.4458 16.9417 10.1739 16.9417 8.00156C16.9417 5.82926 16.9386 5.55736 16.9011 4.70404ZM15.461 11.2366C15.4266 12.018 15.2954 12.4399 15.186 12.7212C14.9173 13.4183 14.3644 13.9715 13.6677 14.2403C13.3865 14.3497 12.9617 14.481 12.1837 14.5153C11.3402 14.5529 11.0872 14.5622 8.95347 14.5622C6.8197 14.5622 6.56355 14.5529 5.72309 14.5153C4.94207 14.481 4.52032 14.3497 4.23915 14.2403C3.89245 14.1121 3.57687 13.909 3.32072 13.6433C3.05517 13.3838 2.85211 13.0713 2.72397 12.7244C2.61463 12.4431 2.48344 12.018 2.44915 11.2397C2.41156 10.3958 2.40229 10.1426 2.40229 8.00779C2.40229 5.87297 2.41156 5.6167 2.44915 4.77596C2.48344 3.99455 2.61463 3.5726 2.72397 3.29129C2.85211 2.9443 3.05517 2.62869 3.32389 2.37229C3.58309 2.10661 3.8955 1.90345 4.24232 1.77537C4.52349 1.66597 4.94842 1.53472 5.72627 1.50029C6.56977 1.46281 6.82287 1.45341 8.95652 1.45341C11.0935 1.45341 11.3465 1.46281 12.1869 1.50029C12.9679 1.53472 13.3897 1.66597 13.6708 1.77537C14.0175 1.90345 14.3331 2.10661 14.5893 2.37229C14.8548 2.63174 15.0579 2.9443 15.186 3.29129C15.2954 3.5726 15.4266 3.99761 15.461 4.77596C15.4984 5.61987 15.5078 5.87297 15.5078 8.00779C15.5078 10.1426 15.4984 10.3927 15.461 11.2366Z" fill="white"/>
<path d="M8.95028 3.8916C6.68226 3.8916 4.8421 5.73254 4.8421 8.00178C4.8421 10.271 6.68226 12.112 8.95028 12.112C11.2184 12.112 13.0584 10.271 13.0584 8.00178C13.0584 5.73254 11.2184 3.8916 8.95028 3.8916ZM8.95028 10.6679C7.4789 10.6679 6.28541 9.47399 6.28541 8.00178C6.28541 6.52957 7.4789 5.33561 8.95028 5.33561C10.4218 5.33561 11.6151 6.52957 11.6151 8.00178C11.6151 9.47399 10.4218 10.6679 8.95028 10.6679V10.6679Z" fill="white"/>
<path d="M14.181 3.72858C14.181 4.25847 13.7513 4.68812 13.2213 4.68812C12.6914 4.68812 12.2618 4.25847 12.2618 3.72858C12.2618 3.19857 12.6914 2.76904 13.2213 2.76904C13.7513 2.76904 14.181 3.19857 14.181 3.72858Z" fill="white"/>
</g>
<defs>
<clipPath id="clip0">
<rect width="15.9922" height="16" fill="white" transform="translate(0.9245)"/>
</clipPath>
</defs>
</svg>
