<svg width="15" height="14" viewBox="0 0 15 14" fill="none" xmlns="http://www.w3.org/2000/svg">
<g clip-path="url(#clip0)">
<path d="M13.5369 0H2.34231C1.57269 0 0.942993 0.63 0.942993 1.4V12.6C0.942993 13.37 1.57269 14 2.34231 14H13.5369C14.3065 14 14.9362 13.37 14.9362 12.6V1.4C14.9362 0.63 14.3065 0 13.5369 0ZM5.14095 11.9H3.04197V5.6H5.14095V11.9ZM4.09146 4.41C3.3918 4.41 2.83207 3.85 2.83207 3.15C2.83207 2.45 3.3918 1.89 4.09146 1.89C4.79112 1.89 5.35084 2.45 5.35084 3.15C5.35084 3.85 4.79112 4.41 4.09146 4.41ZM12.8372 11.9H10.7382V8.19C10.7382 7.63003 10.2485 7.14 9.68873 7.14C9.129 7.14 8.63924 7.63003 8.63924 8.19V11.9H6.54027V5.6H8.63924V6.44C8.98907 5.88 9.7587 5.46 10.3884 5.46C11.7177 5.46 12.8372 6.58 12.8372 7.91V11.9Z" fill="white"/>
</g>
<defs>
<clipPath id="clip0">
<rect width="13.9932" height="14" fill="white" transform="translate(0.942993)"/>
</clipPath>
</defs>
</svg>
