<svg width="21" height="20" viewBox="0 0 21 20" fill="none" xmlns="http://www.w3.org/2000/svg">
<g clip-path="url(#clip0)">
<path d="M20.9547 3.79875C20.2113 4.125 19.4192 4.34125 18.5933 4.44625C19.4429 3.93875 20.0913 3.14125 20.3962 2.18C19.6041 2.6525 18.7295 2.98625 17.7975 3.1725C17.0453 2.37125 15.9734 1.875 14.8039 1.875C12.535 1.875 10.7084 3.7175 10.7084 5.97625C10.7084 6.30125 10.7359 6.61375 10.8034 6.91125C7.39628 6.745 4.3815 5.11125 2.35624 2.6225C2.00266 3.23625 1.79526 3.93875 1.79526 4.695C1.79526 6.115 2.52616 7.37375 3.61562 8.1025C2.9572 8.09 2.31126 7.89875 1.76403 7.5975C1.76403 7.61 1.76403 7.62625 1.76403 7.6425C1.76403 9.635 3.18458 11.29 5.04743 11.6712C4.71384 11.7625 4.35027 11.8062 3.97295 11.8062C3.71058 11.8062 3.44571 11.7912 3.19708 11.7362C3.72807 13.36 5.23484 14.5537 7.02646 14.5925C5.63214 15.6837 3.86175 16.3412 1.94519 16.3412C1.6091 16.3412 1.28676 16.3262 0.964417 16.285C2.77978 17.4562 4.93123 18.125 7.25135 18.125C14.7927 18.125 18.9157 11.875 18.9157 6.4575C18.9157 6.27625 18.9094 6.10125 18.9007 5.9275C19.714 5.35 20.3974 4.62875 20.9547 3.79875Z" fill="white"/>
</g>
<defs>
<clipPath id="clip0">
<rect width="19.9903" height="20" fill="white" transform="translate(0.964417)"/>
</clipPath>
</defs>
</svg>
